<svg width="65" height="65" xmlns="http://www.w3.org/2000/svg" xmlns:xlink="http://www.w3.org/1999/xlink" xml:space="preserve" overflow="hidden"><defs><clipPath id="clip0"><rect x="386" y="510" width="79" height="79"/></clipPath><clipPath id="clip1"><path d="M387.859 574.235 401.892 511.558 464.569 525.591 450.536 588.268Z" fill-rule="nonzero" clip-rule="nonzero"/></clipPath><clipPath id="clip2"><path d="M387.859 574.235 401.892 511.558 464.569 525.591 450.536 588.268Z" fill-rule="evenodd" clip-rule="evenodd"/></clipPath><clipPath id="clip3"><path d="M387.859 574.235 401.892 511.558 464.569 525.591 450.536 588.268Z" fill-rule="evenodd" clip-rule="evenodd"/></clipPath></defs><g clip-path="url(#clip0)" transform="translate(-386 -510)"><g clip-path="url(#clip1)"><g clip-path="url(#clip2)"><g clip-path="url(#clip3)"><path d="M431.447 524.517C430.766 524.889 414.74 533.791 411.85 546.697 408.961 559.603 419.661 574.489 420.118 575.116 420.316 575.388 420.685 575.471 420.98 575.309 421.662 574.937 437.688 566.035 440.577 553.129 443.467 540.223 432.767 525.337 432.309 524.71 432.111 524.438 431.742 524.355 431.447 524.517ZM423.436 562.318C416.586 560.784 412.275 553.987 413.809 547.136 415.343 540.285 422.14 535.974 428.991 537.508 435.842 539.042 440.152 545.839 438.619 552.69 437.078 559.536 430.286 563.843 423.436 562.318ZM420.858 573.835C419.436 571.734 414.024 563.271 412.906 554.398 412.902 554.364 412.907 554.362 412.919 554.396 415.373 561.734 423.311 565.693 430.649 563.239 432.806 562.517 434.756 561.281 436.328 559.637 436.353 559.612 436.357 559.615 436.338 559.645 431.544 567.194 423.039 572.544 420.858 573.835ZM439.521 545.428C439.526 545.462 439.52 545.464 439.509 545.43 437.055 538.092 429.117 534.133 421.779 536.587 419.621 537.309 417.672 538.545 416.099 540.189 416.075 540.214 416.07 540.211 416.089 540.181 420.884 532.633 429.388 527.282 431.57 525.991 432.992 528.089 438.403 536.555 439.521 545.428Z" stroke="#FFFFFF" stroke-width="2.75268" stroke-linecap="butt" stroke-linejoin="miter" stroke-miterlimit="4" stroke-opacity="1" fill="#FFFFFF" fill-rule="nonzero" fill-opacity="1"/><path d="M420.338 548.597C419.611 551.843 421.653 555.062 424.898 555.789 428.143 556.516 431.363 554.474 432.09 551.229 432.816 547.983 430.775 544.764 427.529 544.037 424.285 543.315 421.068 545.355 420.338 548.597ZM430.784 550.936C430.219 553.46 427.715 555.048 425.191 554.483 422.667 553.918 421.079 551.414 421.644 548.89 422.209 546.366 424.713 544.778 427.237 545.343 429.759 545.911 431.346 548.413 430.784 550.936Z" stroke="#FFFFFF" stroke-width="2.75268" stroke-linecap="butt" stroke-linejoin="miter" stroke-miterlimit="4" stroke-opacity="1" fill="#FFFFFF" fill-rule="nonzero" fill-opacity="1"/></g></g></g></g></svg>
