<svg width="279" height="280" xmlns="http://www.w3.org/2000/svg" xmlns:xlink="http://www.w3.org/1999/xlink" xml:space="preserve" overflow="hidden"><defs><clipPath id="clip0"><rect x="618" y="84" width="279" height="280"/></clipPath><clipPath id="clip1"><path d="M619.672 310.341 671.608 85.3811 896.568 137.317 844.632 362.278Z" fill-rule="nonzero" clip-rule="nonzero"/></clipPath><clipPath id="clip2"><path d="M619.672 310.341 671.608 85.3811 896.568 137.317 844.632 362.278Z" fill-rule="evenodd" clip-rule="evenodd"/></clipPath><clipPath id="clip3"><path d="M619.672 310.341 671.608 85.3811 896.568 137.317 844.632 362.278Z" fill-rule="evenodd" clip-rule="evenodd"/></clipPath></defs><g clip-path="url(#clip0)" transform="translate(-618 -84)"><g clip-path="url(#clip1)"><g clip-path="url(#clip2)"><g clip-path="url(#clip3)"><path d="M777.538 132.666C775.08 133.989 717.261 165.604 706.567 211.927 695.872 258.25 733.98 312.012 735.609 314.279 736.314 315.26 737.638 315.566 738.702 314.993 741.16 313.67 798.979 282.055 809.674 235.731 820.368 189.408 782.26 135.647 780.631 133.38 779.926 132.399 778.602 132.093 777.538 132.666ZM747.841 268.353C723.252 262.676 707.92 238.14 713.597 213.55 719.274 188.961 743.81 173.629 768.399 179.306 792.989 184.983 808.32 209.519 802.644 234.108 796.942 258.68 772.426 274 747.841 268.353ZM738.297 309.692C733.236 302.106 713.986 271.555 710.179 239.635 710.163 239.511 710.184 239.506 710.223 239.626 718.869 266.061 747.308 280.482 773.743 271.835 781.516 269.293 788.553 264.896 794.245 259.024 794.333 258.933 794.35 258.947 794.281 259.052 776.867 286.072 746.169 305.101 738.297 309.692ZM806.062 208.023C806.077 208.148 806.057 208.153 806.018 208.033 797.371 181.598 768.932 167.177 742.497 175.824 734.724 178.366 727.688 182.763 721.995 188.635 721.907 188.726 721.891 188.712 721.959 188.607 739.374 161.587 770.071 142.557 777.943 137.967 783.006 145.544 802.255 176.104 806.062 208.023Z" stroke="#000000" stroke-width="9.89486" stroke-linecap="butt" stroke-linejoin="miter" stroke-miterlimit="4" stroke-opacity="1" fill="#000000" fill-rule="nonzero" fill-opacity="1"/><path d="M737.03 218.96C734.341 230.608 741.603 242.23 753.251 244.919 764.899 247.609 776.521 240.346 779.21 228.698 781.899 217.051 774.637 205.428 762.989 202.739 751.344 200.066 739.732 207.322 737.03 218.96ZM774.524 227.616C772.432 236.676 763.393 242.324 754.333 240.233 745.274 238.141 739.625 229.102 741.717 220.042 743.808 210.983 752.848 205.335 761.907 207.426 770.96 209.527 776.604 218.559 774.524 227.616Z" stroke="#000000" stroke-width="9.89486" stroke-linecap="butt" stroke-linejoin="miter" stroke-miterlimit="4" stroke-opacity="1" fill="#000000" fill-rule="nonzero" fill-opacity="1"/></g></g></g></g></svg>